<svg width="747" height="747" viewBox="0 0 747 747" fill="none" xmlns="http://www.w3.org/2000/svg">
<path d="M373.667 0C167.653 0 0.333313 167.32 0.333313 373.333C0.333313 579.347 167.653 746.667 373.667 746.667C579.68 746.667 747 579.347 747 373.333C747 167.32 579.68 0 373.667 0ZM373.667 28.7187C564.16 28.7187 718.28 182.839 718.28 373.332C718.28 563.825 564.16 717.945 373.667 717.945C183.173 717.945 29.0533 563.825 29.0533 373.332C29.0533 182.839 183.173 28.7187 373.667 28.7187V28.7187ZM224.787 205.932C220.412 205.76 214.297 208.703 211.667 211.333C208.162 214.838 204.125 224.521 207.604 228.052L352.884 373.332L207.604 518.612C204.099 522.117 208.162 531.82 211.667 535.33C215.172 538.836 224.875 542.898 228.386 539.393L373.666 394.113L518.946 539.393C522.451 542.898 532.154 538.836 535.664 535.33C539.169 531.825 543.206 522.143 539.727 518.612L394.447 373.332L539.727 228.052C543.232 224.547 539.17 214.843 535.664 211.333C532.159 207.828 522.456 203.765 518.946 207.271L373.666 352.551L228.386 207.271C227.511 206.396 226.245 205.989 224.787 205.932V205.932Z" fill="black"/>
</svg>
